<svg width="374" height="120" viewBox="0 0 374 120" fill="none" xmlns="http://www.w3.org/2000/svg">
<g clip-path="url(#clip0_175_152)">
<path d="M365.833 91.3854C363.2 82.7084 363 60.5417 363 52L352 91.3854C357.833 97.3646 365.833 99.5 374 99.5C374 99.5 367 95.2292 365.833 91.3854Z" fill="#2097FD" stroke="#2097FD"/>
<rect width="348.154" height="82" rx="30" transform="matrix(-1 0 0 1 364 18)" fill="#2097FD"/>
<path d="M46.782 44.14C45.9607 44.14 45.2373 43.9907 44.612 43.692C43.9867 43.384 43.464 42.978 43.044 42.474C42.624 41.9607 42.3067 41.3867 42.092 40.752C41.8773 40.1173 41.77 39.4687 41.77 38.806C41.77 38.1433 41.8773 37.4993 42.092 36.874C42.3067 36.2393 42.624 35.67 43.044 35.166C43.464 34.662 43.9867 34.2607 44.612 33.962C45.2373 33.654 45.9607 33.5 46.782 33.5C47.6033 33.5 48.3267 33.654 48.952 33.962C49.5773 34.2607 50.1 34.662 50.52 35.166C50.94 35.67 51.2573 36.2393 51.472 36.874C51.6867 37.4993 51.794 38.1433 51.794 38.806C51.794 39.4687 51.6867 40.1173 51.472 40.752C51.2573 41.3867 50.94 41.9607 50.52 42.474C50.1 42.978 49.5773 43.384 48.952 43.692C48.3267 43.9907 47.6033 44.14 46.782 44.14ZM46.782 42.866C47.37 42.866 47.888 42.754 48.336 42.53C48.784 42.306 49.1573 42.0027 49.456 41.62C49.764 41.2373 49.9973 40.8033 50.156 40.318C50.3147 39.8327 50.394 39.3287 50.394 38.806C50.394 38.2927 50.3147 37.798 50.156 37.322C49.9973 36.8367 49.764 36.4027 49.456 36.02C49.1573 35.6373 48.784 35.334 48.336 35.11C47.888 34.886 47.37 34.774 46.782 34.774C46.194 34.774 45.676 34.886 45.228 35.11C44.78 35.334 44.402 35.6373 44.094 36.02C43.7953 36.4027 43.5667 36.8367 43.408 37.322C43.2493 37.798 43.17 38.2927 43.17 38.806C43.17 39.3287 43.2493 39.8327 43.408 40.318C43.5667 40.8033 43.7953 41.2373 44.094 41.62C44.402 42.0027 44.78 42.306 45.228 42.53C45.676 42.754 46.194 42.866 46.782 42.866ZM54.1064 44V36.58H55.4364V37.658H55.5204C55.5857 37.546 55.6931 37.392 55.8424 37.196C56.0011 37 56.2251 36.8273 56.5144 36.678C56.8037 36.5193 57.1677 36.44 57.6064 36.44C58.1477 36.44 58.6097 36.566 58.9924 36.818C59.3751 37.0607 59.6644 37.392 59.8604 37.812C60.0657 38.232 60.1684 38.7033 60.1684 39.226V44H58.8384V39.31C58.8384 38.8153 58.6984 38.4047 58.4184 38.078C58.1477 37.7513 57.7511 37.588 57.2284 37.588C56.8084 37.588 56.4677 37.6953 56.2064 37.91C55.9451 38.1153 55.7491 38.3907 55.6184 38.736C55.4971 39.072 55.4364 39.4313 55.4364 39.814V44H54.1064ZM69.6284 44.14C68.863 44.14 68.2844 43.944 67.8924 43.552C67.5097 43.16 67.3184 42.6093 67.3184 41.9V37.672H65.9884V36.58H67.3184V34.718H68.6484V36.58H70.4544V37.672H68.6484V41.9C68.6484 42.2733 68.751 42.5487 68.9564 42.726C69.1617 42.894 69.4604 42.978 69.8524 42.978C70.0577 42.978 70.2537 42.964 70.4404 42.936C70.627 42.908 70.7204 42.894 70.7204 42.894V44.028C70.7204 44.028 70.613 44.0467 70.3984 44.084C70.1837 44.1213 69.927 44.14 69.6284 44.14ZM76.1272 44.14C75.5205 44.14 74.9932 44.0327 74.5452 43.818C74.1065 43.594 73.7425 43.2953 73.4532 42.922C73.1732 42.5487 72.9632 42.138 72.8232 41.69C72.6832 41.2327 72.6132 40.766 72.6132 40.29C72.6132 39.8233 72.6785 39.3613 72.8092 38.904C72.9492 38.4467 73.1592 38.0313 73.4392 37.658C73.7285 37.2847 74.0879 36.9907 74.5172 36.776C74.9559 36.552 75.4739 36.44 76.0712 36.44C76.7059 36.44 77.2659 36.5847 77.7512 36.874C78.2365 37.1633 78.6192 37.5927 78.8992 38.162C79.1792 38.7313 79.3192 39.4453 79.3192 40.304V40.696H73.9572C73.9852 41.116 74.0832 41.5033 74.2512 41.858C74.4285 42.2033 74.6759 42.4833 74.9932 42.698C75.3105 42.9033 75.6885 43.006 76.1272 43.006C76.5099 43.006 76.8179 42.9453 77.0512 42.824C77.2939 42.6933 77.4852 42.544 77.6252 42.376C77.7652 42.208 77.8585 42.0633 77.9052 41.942C77.9612 41.8113 77.9892 41.746 77.9892 41.746H79.2352C79.2352 41.746 79.2119 41.83 79.1652 41.998C79.1185 42.1567 79.0345 42.3527 78.9132 42.586C78.7919 42.8193 78.6145 43.0573 78.3812 43.3C78.1479 43.5333 77.8492 43.734 77.4852 43.902C77.1212 44.0607 76.6685 44.14 76.1272 44.14ZM73.9712 39.66H78.0172C77.9985 39.1747 77.8959 38.7827 77.7092 38.484C77.5225 38.176 77.2845 37.9473 76.9952 37.798C76.7059 37.6487 76.3979 37.574 76.0712 37.574C75.4832 37.574 75.0025 37.7653 74.6292 38.148C74.2559 38.5213 74.0365 39.0253 73.9712 39.66ZM81.6941 44V36.58H83.0241V37.504H83.0801C83.2387 37.224 83.4721 36.9767 83.7801 36.762C84.0881 36.5473 84.5221 36.44 85.0821 36.44C85.2407 36.44 85.3854 36.4493 85.5161 36.468C85.6467 36.4773 85.7121 36.482 85.7121 36.482V37.756C85.7121 37.756 85.6374 37.7513 85.4881 37.742C85.3481 37.7233 85.1987 37.714 85.0401 37.714C84.3961 37.714 83.8967 37.9007 83.5421 38.274C83.1967 38.638 83.0241 39.2353 83.0241 40.066V44H81.6941ZM90.0745 44L87.2465 36.58H88.6325L90.8025 42.376L92.9305 36.58H94.3305L91.4885 44H90.0745ZM99.4635 44.14C98.8568 44.14 98.3295 44.0327 97.8815 43.818C97.4428 43.594 97.0788 43.2953 96.7895 42.922C96.5095 42.5487 96.2995 42.138 96.1595 41.69C96.0195 41.2327 95.9495 40.766 95.9495 40.29C95.9495 39.8233 96.0148 39.3613 96.1455 38.904C96.2855 38.4467 96.4955 38.0313 96.7755 37.658C97.0648 37.2847 97.4241 36.9907 97.8535 36.776C98.2921 36.552 98.8101 36.44 99.4075 36.44C100.042 36.44 100.602 36.5847 101.087 36.874C101.573 37.1633 101.955 37.5927 102.235 38.162C102.515 38.7313 102.655 39.4453 102.655 40.304V40.696H97.2935C97.3215 41.116 97.4195 41.5033 97.5875 41.858C97.7648 42.2033 98.0121 42.4833 98.3295 42.698C98.6468 42.9033 99.0248 43.006 99.4635 43.006C99.8461 43.006 100.154 42.9453 100.387 42.824C100.63 42.6933 100.821 42.544 100.961 42.376C101.101 42.208 101.195 42.0633 101.241 41.942C101.297 41.8113 101.325 41.746 101.325 41.746H102.571C102.571 41.746 102.548 41.83 102.501 41.998C102.455 42.1567 102.371 42.3527 102.249 42.586C102.128 42.8193 101.951 43.0573 101.717 43.3C101.484 43.5333 101.185 43.734 100.821 43.902C100.457 44.0607 100.005 44.14 99.4635 44.14ZM97.3075 39.66H101.353C101.335 39.1747 101.232 38.7827 101.045 38.484C100.859 38.176 100.621 37.9473 100.331 37.798C100.042 37.6487 99.7341 37.574 99.4075 37.574C98.8195 37.574 98.3388 37.7653 97.9655 38.148C97.5921 38.5213 97.3728 39.0253 97.3075 39.66ZM108.336 44.14C107.729 44.14 107.202 44.0327 106.754 43.818C106.315 43.594 105.951 43.2953 105.662 42.922C105.382 42.5487 105.172 42.138 105.032 41.69C104.892 41.2327 104.822 40.766 104.822 40.29C104.822 39.8233 104.887 39.3613 105.018 38.904C105.158 38.4467 105.368 38.0313 105.648 37.658C105.937 37.2847 106.297 36.9907 106.726 36.776C107.165 36.552 107.683 36.44 108.28 36.44C108.915 36.44 109.475 36.5847 109.96 36.874C110.445 37.1633 110.828 37.5927 111.108 38.162C111.388 38.7313 111.528 39.4453 111.528 40.304V40.696H106.166C106.194 41.116 106.292 41.5033 106.46 41.858C106.637 42.2033 106.885 42.4833 107.202 42.698C107.519 42.9033 107.897 43.006 108.336 43.006C108.719 43.006 109.027 42.9453 109.26 42.824C109.503 42.6933 109.694 42.544 109.834 42.376C109.974 42.208 110.067 42.0633 110.114 41.942C110.17 41.8113 110.198 41.746 110.198 41.746H111.444C111.444 41.746 111.421 41.83 111.374 41.998C111.327 42.1567 111.243 42.3527 111.122 42.586C111.001 42.8193 110.823 43.0573 110.59 43.3C110.357 43.5333 110.058 43.734 109.694 43.902C109.33 44.0607 108.877 44.14 108.336 44.14ZM106.18 39.66H110.226C110.207 39.1747 110.105 38.7827 109.918 38.484C109.731 38.176 109.493 37.9473 109.204 37.798C108.915 37.6487 108.607 37.574 108.28 37.574C107.692 37.574 107.211 37.7653 106.838 38.148C106.465 38.5213 106.245 39.0253 106.18 39.66ZM114.043 44L114.057 33.36H115.373V44H114.043ZM118.171 44L118.185 33.36H119.501V44H118.171ZM123.028 35.166C122.776 35.166 122.566 35.082 122.398 34.914C122.239 34.746 122.16 34.5453 122.16 34.312C122.16 34.0693 122.239 33.864 122.398 33.696C122.566 33.528 122.776 33.444 123.028 33.444C123.27 33.444 123.476 33.528 123.644 33.696C123.812 33.864 123.896 34.0693 123.896 34.312C123.896 34.5453 123.812 34.746 123.644 34.914C123.476 35.082 123.27 35.166 123.028 35.166ZM122.37 44V36.58H123.7V44H122.37ZM129.127 44.14C128.558 44.14 128.086 44.0607 127.713 43.902C127.349 43.7433 127.06 43.5473 126.845 43.314C126.63 43.0713 126.472 42.8333 126.369 42.6C126.266 42.3573 126.201 42.1567 126.173 41.998C126.145 41.8393 126.131 41.76 126.131 41.76H127.475C127.475 41.76 127.489 41.8253 127.517 41.956C127.554 42.0773 127.624 42.222 127.727 42.39C127.839 42.5487 128.007 42.6933 128.231 42.824C128.464 42.9453 128.772 43.006 129.155 43.006C129.594 43.006 129.934 42.9033 130.177 42.698C130.42 42.4833 130.541 42.222 130.541 41.914C130.541 41.6433 130.443 41.4287 130.247 41.27C130.06 41.1113 129.79 40.99 129.435 40.906L128.427 40.668C128.054 40.5747 127.704 40.4487 127.377 40.29C127.05 40.1313 126.784 39.9167 126.579 39.646C126.383 39.366 126.285 39.0207 126.285 38.61C126.285 37.9753 126.523 37.4573 126.999 37.056C127.475 36.6453 128.096 36.44 128.861 36.44C129.374 36.44 129.799 36.5147 130.135 36.664C130.471 36.804 130.737 36.9813 130.933 37.196C131.138 37.4107 131.288 37.6253 131.381 37.84C131.484 38.0547 131.549 38.2367 131.577 38.386C131.605 38.526 131.619 38.596 131.619 38.596H130.331C130.331 38.596 130.317 38.5447 130.289 38.442C130.261 38.33 130.196 38.2087 130.093 38.078C130 37.938 129.855 37.8167 129.659 37.714C129.463 37.602 129.202 37.546 128.875 37.546C128.427 37.546 128.1 37.6487 127.895 37.854C127.69 38.0593 127.587 38.2833 127.587 38.526C127.587 38.7593 127.68 38.9507 127.867 39.1C128.063 39.24 128.315 39.3473 128.623 39.422L129.645 39.66C130.28 39.8093 130.802 40.0567 131.213 40.402C131.633 40.738 131.843 41.2233 131.843 41.858C131.843 42.2687 131.736 42.6513 131.521 43.006C131.306 43.3513 130.998 43.6267 130.597 43.832C130.196 44.0373 129.706 44.14 129.127 44.14ZM137.094 44.14C136.328 44.14 135.75 43.944 135.358 43.552C134.975 43.16 134.784 42.6093 134.784 41.9V37.672H133.454V36.58H134.784V34.718H136.114V36.58H137.92V37.672H136.114V41.9C136.114 42.2733 136.216 42.5487 136.422 42.726C136.627 42.894 136.926 42.978 137.318 42.978C137.523 42.978 137.719 42.964 137.906 42.936C138.092 42.908 138.186 42.894 138.186 42.894V44.028C138.186 44.028 138.078 44.0467 137.864 44.084C137.649 44.1213 137.392 44.14 137.094 44.14ZM145.146 35.446C144.894 35.446 144.684 35.362 144.516 35.194C144.358 35.026 144.278 34.8253 144.278 34.592C144.278 34.3493 144.358 34.144 144.516 33.976C144.684 33.808 144.894 33.724 145.146 33.724C145.389 33.724 145.594 33.808 145.762 33.976C145.93 34.144 146.014 34.3493 146.014 34.592C146.014 34.8253 145.93 35.026 145.762 35.194C145.594 35.362 145.389 35.446 145.146 35.446ZM142.486 35.446C142.234 35.446 142.024 35.362 141.856 35.194C141.698 35.026 141.618 34.8253 141.618 34.592C141.618 34.3493 141.698 34.144 141.856 33.976C142.024 33.808 142.234 33.724 142.486 33.724C142.729 33.724 142.934 33.808 143.102 33.976C143.27 34.144 143.354 34.3493 143.354 34.592C143.354 34.8253 143.27 35.026 143.102 35.194C142.934 35.362 142.729 35.446 142.486 35.446ZM143.508 36.44C143.975 36.44 144.367 36.5147 144.684 36.664C145.002 36.8133 145.258 36.9907 145.454 37.196C145.65 37.392 145.8 37.5787 145.902 37.756H145.986V36.58H147.316V44H145.986V42.824H145.902C145.8 43.0013 145.65 43.1927 145.454 43.398C145.258 43.6033 145.002 43.7807 144.684 43.93C144.367 44.07 143.975 44.14 143.508 44.14C142.948 44.14 142.458 44.0327 142.038 43.818C141.618 43.594 141.268 43.3 140.988 42.936C140.708 42.5627 140.498 42.1473 140.358 41.69C140.218 41.2327 140.148 40.766 140.148 40.29C140.148 39.814 140.218 39.3473 140.358 38.89C140.498 38.4327 140.708 38.022 140.988 37.658C141.268 37.2847 141.618 36.9907 142.038 36.776C142.458 36.552 142.948 36.44 143.508 36.44ZM143.732 37.574C143.238 37.574 142.822 37.7093 142.486 37.98C142.15 38.2413 141.898 38.5773 141.73 38.988C141.572 39.3987 141.492 39.8327 141.492 40.29C141.492 40.738 141.572 41.172 141.73 41.592C141.898 42.0027 142.15 42.3433 142.486 42.614C142.822 42.8753 143.238 43.006 143.732 43.006C144.227 43.006 144.638 42.8753 144.964 42.614C145.3 42.3433 145.548 42.0027 145.706 41.592C145.874 41.172 145.958 40.738 145.958 40.29C145.958 39.8327 145.874 39.3987 145.706 38.988C145.548 38.5773 145.3 38.2413 144.964 37.98C144.638 37.7093 144.227 37.574 143.732 37.574ZM157.225 44.14C156.432 44.14 155.765 43.958 155.223 43.594C154.682 43.2207 154.271 42.74 153.991 42.152C153.711 41.564 153.571 40.9433 153.571 40.29C153.571 39.6273 153.711 39.0067 153.991 38.428C154.271 37.84 154.682 37.364 155.223 37C155.765 36.6267 156.432 36.44 157.225 36.44C158.019 36.44 158.686 36.6267 159.227 37C159.769 37.364 160.179 37.84 160.459 38.428C160.739 39.0067 160.879 39.6273 160.879 40.29C160.879 40.9433 160.739 41.564 160.459 42.152C160.179 42.74 159.769 43.2207 159.227 43.594C158.686 43.958 158.019 44.14 157.225 44.14ZM157.225 42.978C157.729 42.978 158.149 42.852 158.485 42.6C158.831 42.3387 159.087 42.0027 159.255 41.592C159.433 41.1813 159.521 40.7473 159.521 40.29C159.521 39.8233 159.433 39.3893 159.255 38.988C159.087 38.5773 158.831 38.246 158.485 37.994C158.149 37.7327 157.729 37.602 157.225 37.602C156.731 37.602 156.311 37.7327 155.965 37.994C155.62 38.246 155.359 38.5773 155.181 38.988C155.013 39.3893 154.929 39.8233 154.929 40.29C154.929 40.7473 155.013 41.1813 155.181 41.592C155.359 42.0027 155.62 42.3387 155.965 42.6C156.311 42.852 156.731 42.978 157.225 42.978ZM163.394 44L163.408 33.36H164.724V44H163.394ZM167.522 44L167.536 33.36H168.852V44H167.522ZM174.731 36.44C175.197 36.44 175.589 36.5147 175.907 36.664C176.224 36.8133 176.481 36.9907 176.677 37.196C176.873 37.392 177.022 37.5787 177.125 37.756H177.209V36.58H178.539V44H177.209V42.824H177.125C177.022 43.0013 176.873 43.1927 176.677 43.398C176.481 43.6033 176.224 43.7807 175.907 43.93C175.589 44.07 175.197 44.14 174.731 44.14C174.171 44.14 173.681 44.0327 173.261 43.818C172.841 43.594 172.491 43.3 172.211 42.936C171.931 42.5627 171.721 42.1473 171.581 41.69C171.441 41.2327 171.371 40.766 171.371 40.29C171.371 39.814 171.441 39.3473 171.581 38.89C171.721 38.4327 171.931 38.022 172.211 37.658C172.491 37.2847 172.841 36.9907 173.261 36.776C173.681 36.552 174.171 36.44 174.731 36.44ZM174.955 37.574C174.46 37.574 174.045 37.7093 173.709 37.98C173.373 38.2413 173.121 38.5773 172.953 38.988C172.794 39.3987 172.715 39.8327 172.715 40.29C172.715 40.738 172.794 41.172 172.953 41.592C173.121 42.0027 173.373 42.3433 173.709 42.614C174.045 42.8753 174.46 43.006 174.955 43.006C175.449 43.006 175.86 42.8753 176.187 42.614C176.523 42.3433 176.77 42.0027 176.929 41.592C177.097 41.172 177.181 40.738 177.181 40.29C177.181 39.8327 177.097 39.3987 176.929 38.988C176.77 38.5773 176.523 38.2413 176.187 37.98C175.86 37.7093 175.449 37.574 174.955 37.574ZM187.99 44.14C187.224 44.14 186.646 43.944 186.254 43.552C185.871 43.16 185.68 42.6093 185.68 41.9V37.672H184.35V36.58H185.68V34.718H187.01V36.58H188.816V37.672H187.01V41.9C187.01 42.2733 187.112 42.5487 187.318 42.726C187.523 42.894 187.822 42.978 188.214 42.978C188.419 42.978 188.615 42.964 188.802 42.936C188.988 42.908 189.082 42.894 189.082 42.894V44.028C189.082 44.028 188.974 44.0467 188.76 44.084C188.545 44.1213 188.288 44.14 187.99 44.14ZM194.334 36.44C194.801 36.44 195.193 36.5147 195.51 36.664C195.828 36.8133 196.084 36.9907 196.28 37.196C196.476 37.392 196.626 37.5787 196.728 37.756H196.812V36.58H198.142V44H196.812V42.824H196.728C196.626 43.0013 196.476 43.1927 196.28 43.398C196.084 43.6033 195.828 43.7807 195.51 43.93C195.193 44.07 194.801 44.14 194.334 44.14C193.774 44.14 193.284 44.0327 192.864 43.818C192.444 43.594 192.094 43.3 191.814 42.936C191.534 42.5627 191.324 42.1473 191.184 41.69C191.044 41.2327 190.974 40.766 190.974 40.29C190.974 39.814 191.044 39.3473 191.184 38.89C191.324 38.4327 191.534 38.022 191.814 37.658C192.094 37.2847 192.444 36.9907 192.864 36.776C193.284 36.552 193.774 36.44 194.334 36.44ZM194.558 37.574C194.064 37.574 193.648 37.7093 193.312 37.98C192.976 38.2413 192.724 38.5773 192.556 38.988C192.398 39.3987 192.318 39.8327 192.318 40.29C192.318 40.738 192.398 41.172 192.556 41.592C192.724 42.0027 192.976 42.3433 193.312 42.614C193.648 42.8753 194.064 43.006 194.558 43.006C195.053 43.006 195.464 42.8753 195.79 42.614C196.126 42.3433 196.374 42.0027 196.532 41.592C196.7 41.172 196.784 40.738 196.784 40.29C196.784 39.8327 196.7 39.3987 196.532 38.988C196.374 38.5773 196.126 38.2413 195.79 37.98C195.464 37.7093 195.053 37.574 194.558 37.574ZM202.721 44L199.893 36.58H201.279L203.449 42.376L205.577 36.58H206.977L204.135 44H202.721ZM212.25 44.14C211.457 44.14 210.79 43.958 210.248 43.594C209.707 43.2207 209.296 42.74 209.016 42.152C208.736 41.564 208.596 40.9433 208.596 40.29C208.596 39.6273 208.736 39.0067 209.016 38.428C209.296 37.84 209.707 37.364 210.248 37C210.79 36.6267 211.457 36.44 212.25 36.44C213.044 36.44 213.711 36.6267 214.252 37C214.794 37.364 215.204 37.84 215.484 38.428C215.764 39.0067 215.904 39.6273 215.904 40.29C215.904 40.9433 215.764 41.564 215.484 42.152C215.204 42.74 214.794 43.2207 214.252 43.594C213.711 43.958 213.044 44.14 212.25 44.14ZM212.25 42.978C212.754 42.978 213.174 42.852 213.51 42.6C213.856 42.3387 214.112 42.0027 214.28 41.592C214.458 41.1813 214.546 40.7473 214.546 40.29C214.546 39.8233 214.458 39.3893 214.28 38.988C214.112 38.5773 213.856 38.246 213.51 37.994C213.174 37.7327 212.754 37.602 212.25 37.602C211.756 37.602 211.336 37.7327 210.99 37.994C210.645 38.246 210.384 38.5773 210.206 38.988C210.038 39.3893 209.954 39.8233 209.954 40.29C209.954 40.7473 210.038 41.1813 210.206 41.592C210.384 42.0027 210.645 42.3387 210.99 42.6C211.336 42.852 211.756 42.978 212.25 42.978ZM219.147 35.166C218.895 35.166 218.685 35.082 218.517 34.914C218.358 34.746 218.279 34.5453 218.279 34.312C218.279 34.0693 218.358 33.864 218.517 33.696C218.685 33.528 218.895 33.444 219.147 33.444C219.389 33.444 219.595 33.528 219.763 33.696C219.931 33.864 220.015 34.0693 220.015 34.312C220.015 34.5453 219.931 34.746 219.763 34.914C219.595 35.082 219.389 35.166 219.147 35.166ZM218.489 44V36.58H219.819V44H218.489ZM225.68 44.14C224.915 44.14 224.336 43.944 223.944 43.552C223.562 43.16 223.37 42.6093 223.37 41.9V37.672H222.04V36.58H223.37V34.718H224.7V36.58H226.506V37.672H224.7V41.9C224.7 42.2733 224.803 42.5487 225.008 42.726C225.214 42.894 225.512 42.978 225.904 42.978C226.11 42.978 226.306 42.964 226.492 42.936C226.679 42.908 226.772 42.894 226.772 42.894V44.028C226.772 44.028 226.665 44.0467 226.45 44.084C226.236 44.1213 225.979 44.14 225.68 44.14ZM232.092 44.14C231.326 44.14 230.748 43.944 230.356 43.552C229.973 43.16 229.782 42.6093 229.782 41.9V37.672H228.452V36.58H229.782V34.718H231.112V36.58H232.918V37.672H231.112V41.9C231.112 42.2733 231.214 42.5487 231.42 42.726C231.625 42.894 231.924 42.978 232.316 42.978C232.521 42.978 232.717 42.964 232.904 42.936C233.09 42.908 233.184 42.894 233.184 42.894V44.028C233.184 44.028 233.076 44.0467 232.862 44.084C232.647 44.1213 232.39 44.14 232.092 44.14ZM238.437 36.44C238.903 36.44 239.295 36.5147 239.613 36.664C239.93 36.8133 240.187 36.9907 240.383 37.196C240.579 37.392 240.728 37.5787 240.831 37.756H240.915V36.58H242.245V44H240.915V42.824H240.831C240.728 43.0013 240.579 43.1927 240.383 43.398C240.187 43.6033 239.93 43.7807 239.613 43.93C239.295 44.07 238.903 44.14 238.437 44.14C237.877 44.14 237.387 44.0327 236.967 43.818C236.547 43.594 236.197 43.3 235.917 42.936C235.637 42.5627 235.427 42.1473 235.287 41.69C235.147 41.2327 235.077 40.766 235.077 40.29C235.077 39.814 235.147 39.3473 235.287 38.89C235.427 38.4327 235.637 38.022 235.917 37.658C236.197 37.2847 236.547 36.9907 236.967 36.776C237.387 36.552 237.877 36.44 238.437 36.44ZM238.661 37.574C238.166 37.574 237.751 37.7093 237.415 37.98C237.079 38.2413 236.827 38.5773 236.659 38.988C236.5 39.3987 236.421 39.8327 236.421 40.29C236.421 40.738 236.5 41.172 236.659 41.592C236.827 42.0027 237.079 42.3433 237.415 42.614C237.751 42.8753 238.166 43.006 238.661 43.006C239.155 43.006 239.566 42.8753 239.893 42.614C240.229 42.3433 240.476 42.0027 240.635 41.592C240.803 41.172 240.887 40.738 240.887 40.29C240.887 39.8327 240.803 39.3987 240.635 38.988C240.476 38.5773 240.229 38.2413 239.893 37.98C239.566 37.7093 239.155 37.574 238.661 37.574ZM244.759 44V36.58H246.089V37.658H246.145C246.22 37.518 246.336 37.3547 246.495 37.168C246.654 36.972 246.868 36.804 247.139 36.664C247.419 36.5147 247.769 36.44 248.189 36.44C248.74 36.44 249.202 36.5753 249.575 36.846C249.958 37.1073 250.242 37.462 250.429 37.91H250.443C250.648 37.4993 250.938 37.154 251.311 36.874C251.694 36.5847 252.188 36.44 252.795 36.44C253.598 36.44 254.214 36.7153 254.643 37.266C255.082 37.8073 255.301 38.5073 255.301 39.366V44H253.971V39.436C253.971 38.8853 253.84 38.442 253.579 38.106C253.318 37.7607 252.94 37.588 252.445 37.588C252.016 37.588 251.67 37.7047 251.409 37.938C251.157 38.1713 250.975 38.4607 250.863 38.806C250.751 39.1513 250.695 39.4967 250.695 39.842V44H249.365V39.436C249.365 38.8853 249.234 38.442 248.973 38.106C248.721 37.7607 248.343 37.588 247.839 37.588C247.41 37.588 247.064 37.7047 246.803 37.938C246.551 38.1713 246.369 38.4653 246.257 38.82C246.145 39.1653 246.089 39.506 246.089 39.842V44H244.759ZM261.035 36.44C261.502 36.44 261.894 36.5147 262.211 36.664C262.528 36.8133 262.785 36.9907 262.981 37.196C263.177 37.392 263.326 37.5787 263.429 37.756H263.513V36.58H264.843V44H263.513V42.824H263.429C263.326 43.0013 263.177 43.1927 262.981 43.398C262.785 43.6033 262.528 43.7807 262.211 43.93C261.894 44.07 261.502 44.14 261.035 44.14C260.475 44.14 259.985 44.0327 259.565 43.818C259.145 43.594 258.795 43.3 258.515 42.936C258.235 42.5627 258.025 42.1473 257.885 41.69C257.745 41.2327 257.675 40.766 257.675 40.29C257.675 39.814 257.745 39.3473 257.885 38.89C258.025 38.4327 258.235 38.022 258.515 37.658C258.795 37.2847 259.145 36.9907 259.565 36.776C259.985 36.552 260.475 36.44 261.035 36.44ZM261.259 37.574C260.764 37.574 260.349 37.7093 260.013 37.98C259.677 38.2413 259.425 38.5773 259.257 38.988C259.098 39.3987 259.019 39.8327 259.019 40.29C259.019 40.738 259.098 41.172 259.257 41.592C259.425 42.0027 259.677 42.3433 260.013 42.614C260.349 42.8753 260.764 43.006 261.259 43.006C261.754 43.006 262.164 42.8753 262.491 42.614C262.827 42.3433 263.074 42.0027 263.233 41.592C263.401 41.172 263.485 40.738 263.485 40.29C263.485 39.8327 263.401 39.3987 263.233 38.988C263.074 38.5773 262.827 38.2413 262.491 37.98C262.164 37.7093 261.754 37.574 261.259 37.574ZM270.234 44.14C269.469 44.14 268.89 43.944 268.498 43.552C268.115 43.16 267.924 42.6093 267.924 41.9V37.672H266.594V36.58H267.924V34.718H269.254V36.58H271.06V37.672H269.254V41.9C269.254 42.2733 269.357 42.5487 269.562 42.726C269.767 42.894 270.066 42.978 270.458 42.978C270.663 42.978 270.859 42.964 271.046 42.936C271.233 42.908 271.326 42.894 271.326 42.894V44.028C271.326 44.028 271.219 44.0467 271.004 44.084C270.789 44.1213 270.533 44.14 270.234 44.14ZM276.646 44.14C275.88 44.14 275.302 43.944 274.91 43.552C274.527 43.16 274.336 42.6093 274.336 41.9V37.672H273.006V36.58H274.336V34.718H275.666V36.58H277.472V37.672H275.666V41.9C275.666 42.2733 275.768 42.5487 275.974 42.726C276.179 42.894 276.478 42.978 276.87 42.978C277.075 42.978 277.271 42.964 277.458 42.936C277.644 42.908 277.738 42.894 277.738 42.894V44.028C277.738 44.028 277.63 44.0467 277.416 44.084C277.201 44.1213 276.944 44.14 276.646 44.14ZM283.285 44.14C282.491 44.14 281.824 43.958 281.283 43.594C280.741 43.2207 280.331 42.74 280.051 42.152C279.771 41.564 279.631 40.9433 279.631 40.29C279.631 39.6273 279.771 39.0067 280.051 38.428C280.331 37.84 280.741 37.364 281.283 37C281.824 36.6267 282.491 36.44 283.285 36.44C284.078 36.44 284.745 36.6267 285.287 37C285.828 37.364 286.239 37.84 286.519 38.428C286.799 39.0067 286.939 39.6273 286.939 40.29C286.939 40.9433 286.799 41.564 286.519 42.152C286.239 42.74 285.828 43.2207 285.287 43.594C284.745 43.958 284.078 44.14 283.285 44.14ZM283.285 42.978C283.789 42.978 284.209 42.852 284.545 42.6C284.89 42.3387 285.147 42.0027 285.315 41.592C285.492 41.1813 285.581 40.7473 285.581 40.29C285.581 39.8233 285.492 39.3893 285.315 38.988C285.147 38.5773 284.89 38.246 284.545 37.994C284.209 37.7327 283.789 37.602 283.285 37.602C282.79 37.602 282.37 37.7327 282.025 37.994C281.679 38.246 281.418 38.5773 281.241 38.988C281.073 39.3893 280.989 39.8233 280.989 40.29C280.989 40.7473 281.073 41.1813 281.241 41.592C281.418 42.0027 281.679 42.3387 282.025 42.6C282.37 42.852 282.79 42.978 283.285 42.978ZM289.313 44V36.58H290.643V37.658H290.699C290.774 37.518 290.89 37.3547 291.049 37.168C291.208 36.972 291.422 36.804 291.693 36.664C291.973 36.5147 292.323 36.44 292.743 36.44C293.294 36.44 293.756 36.5753 294.129 36.846C294.512 37.1073 294.796 37.462 294.983 37.91H294.997C295.202 37.4993 295.492 37.154 295.865 36.874C296.248 36.5847 296.742 36.44 297.349 36.44C298.152 36.44 298.768 36.7153 299.197 37.266C299.636 37.8073 299.855 38.5073 299.855 39.366V44H298.525V39.436C298.525 38.8853 298.394 38.442 298.133 38.106C297.872 37.7607 297.494 37.588 296.999 37.588C296.57 37.588 296.224 37.7047 295.963 37.938C295.711 38.1713 295.529 38.4607 295.417 38.806C295.305 39.1513 295.249 39.4967 295.249 39.842V44H293.919V39.436C293.919 38.8853 293.788 38.442 293.527 38.106C293.275 37.7607 292.897 37.588 292.393 37.588C291.964 37.588 291.618 37.7047 291.357 37.938C291.105 38.1713 290.923 38.4653 290.811 38.82C290.699 39.1653 290.643 39.506 290.643 39.842V44H289.313ZM303.237 35.166C302.985 35.166 302.775 35.082 302.607 34.914C302.448 34.746 302.369 34.5453 302.369 34.312C302.369 34.0693 302.448 33.864 302.607 33.696C302.775 33.528 302.985 33.444 303.237 33.444C303.48 33.444 303.685 33.528 303.853 33.696C304.021 33.864 304.105 34.0693 304.105 34.312C304.105 34.5453 304.021 34.746 303.853 34.914C303.685 35.082 303.48 35.166 303.237 35.166ZM302.579 44V36.58H303.909V44H302.579ZM309.336 44.14C308.767 44.14 308.296 44.0607 307.922 43.902C307.558 43.7433 307.269 43.5473 307.054 43.314C306.84 43.0713 306.681 42.8333 306.578 42.6C306.476 42.3573 306.41 42.1567 306.382 41.998C306.354 41.8393 306.34 41.76 306.34 41.76H307.684C307.684 41.76 307.698 41.8253 307.726 41.956C307.764 42.0773 307.834 42.222 307.936 42.39C308.048 42.5487 308.216 42.6933 308.44 42.824C308.674 42.9453 308.982 43.006 309.364 43.006C309.803 43.006 310.144 42.9033 310.386 42.698C310.629 42.4833 310.75 42.222 310.75 41.914C310.75 41.6433 310.652 41.4287 310.456 41.27C310.27 41.1113 309.999 40.99 309.644 40.906L308.636 40.668C308.263 40.5747 307.913 40.4487 307.586 40.29C307.26 40.1313 306.994 39.9167 306.788 39.646C306.592 39.366 306.494 39.0207 306.494 38.61C306.494 37.9753 306.732 37.4573 307.208 37.056C307.684 36.6453 308.305 36.44 309.07 36.44C309.584 36.44 310.008 36.5147 310.344 36.664C310.68 36.804 310.946 36.9813 311.142 37.196C311.348 37.4107 311.497 37.6253 311.59 37.84C311.693 38.0547 311.758 38.2367 311.786 38.386C311.814 38.526 311.828 38.596 311.828 38.596H310.54C310.54 38.596 310.526 38.5447 310.498 38.442C310.47 38.33 310.405 38.2087 310.302 38.078C310.209 37.938 310.064 37.8167 309.868 37.714C309.672 37.602 309.411 37.546 309.084 37.546C308.636 37.546 308.31 37.6487 308.104 37.854C307.899 38.0593 307.796 38.2833 307.796 38.526C307.796 38.7593 307.89 38.9507 308.076 39.1C308.272 39.24 308.524 39.3473 308.832 39.422L309.854 39.66C310.489 39.8093 311.012 40.0567 311.422 40.402C311.842 40.738 312.052 41.2233 312.052 41.858C312.052 42.2687 311.945 42.6513 311.73 43.006C311.516 43.3513 311.208 43.6267 310.806 43.832C310.405 44.0373 309.915 44.14 309.336 44.14ZM317.006 44.14C316.437 44.14 315.965 44.0607 315.592 43.902C315.228 43.7433 314.939 43.5473 314.724 43.314C314.509 43.0713 314.351 42.8333 314.248 42.6C314.145 42.3573 314.08 42.1567 314.052 41.998C314.024 41.8393 314.01 41.76 314.01 41.76H315.354C315.354 41.76 315.368 41.8253 315.396 41.956C315.433 42.0773 315.503 42.222 315.606 42.39C315.718 42.5487 315.886 42.6933 316.11 42.824C316.343 42.9453 316.651 43.006 317.034 43.006C317.473 43.006 317.813 42.9033 318.056 42.698C318.299 42.4833 318.42 42.222 318.42 41.914C318.42 41.6433 318.322 41.4287 318.126 41.27C317.939 41.1113 317.669 40.99 317.314 40.906L316.306 40.668C315.933 40.5747 315.583 40.4487 315.256 40.29C314.929 40.1313 314.663 39.9167 314.458 39.646C314.262 39.366 314.164 39.0207 314.164 38.61C314.164 37.9753 314.402 37.4573 314.878 37.056C315.354 36.6453 315.975 36.44 316.74 36.44C317.253 36.44 317.678 36.5147 318.014 36.664C318.35 36.804 318.616 36.9813 318.812 37.196C319.017 37.4107 319.167 37.6253 319.26 37.84C319.363 38.0547 319.428 38.2367 319.456 38.386C319.484 38.526 319.498 38.596 319.498 38.596H318.21C318.21 38.596 318.196 38.5447 318.168 38.442C318.14 38.33 318.075 38.2087 317.972 38.078C317.879 37.938 317.734 37.8167 317.538 37.714C317.342 37.602 317.081 37.546 316.754 37.546C316.306 37.546 315.979 37.6487 315.774 37.854C315.569 38.0593 315.466 38.2833 315.466 38.526C315.466 38.7593 315.559 38.9507 315.746 39.1C315.942 39.24 316.194 39.3473 316.502 39.422L317.524 39.66C318.159 39.8093 318.681 40.0567 319.092 40.402C319.512 40.738 319.722 41.2233 319.722 41.858C319.722 42.2687 319.615 42.6513 319.4 43.006C319.185 43.3513 318.877 43.6267 318.476 43.832C318.075 44.0373 317.585 44.14 317.006 44.14ZM325.042 36.44C325.509 36.44 325.901 36.5147 326.218 36.664C326.536 36.8133 326.792 36.9907 326.988 37.196C327.184 37.392 327.334 37.5787 327.436 37.756H327.52V36.58H328.85V44H327.52V42.824H327.436C327.334 43.0013 327.184 43.1927 326.988 43.398C326.792 43.6033 326.536 43.7807 326.218 43.93C325.901 44.07 325.509 44.14 325.042 44.14C324.482 44.14 323.992 44.0327 323.572 43.818C323.152 43.594 322.802 43.3 322.522 42.936C322.242 42.5627 322.032 42.1473 321.892 41.69C321.752 41.2327 321.682 40.766 321.682 40.29C321.682 39.814 321.752 39.3473 321.892 38.89C322.032 38.4327 322.242 38.022 322.522 37.658C322.802 37.2847 323.152 36.9907 323.572 36.776C323.992 36.552 324.482 36.44 325.042 36.44ZM325.266 37.574C324.772 37.574 324.356 37.7093 324.02 37.98C323.684 38.2413 323.432 38.5773 323.264 38.988C323.106 39.3987 323.026 39.8327 323.026 40.29C323.026 40.738 323.106 41.172 323.264 41.592C323.432 42.0027 323.684 42.3433 324.02 42.614C324.356 42.8753 324.772 43.006 325.266 43.006C325.761 43.006 326.172 42.8753 326.498 42.614C326.834 42.3433 327.082 42.0027 327.24 41.592C327.408 41.172 327.492 40.738 327.492 40.29C327.492 39.8327 327.408 39.3987 327.24 38.988C327.082 38.5773 326.834 38.2413 326.498 37.98C326.172 37.7093 325.761 37.574 325.266 37.574ZM42.12 62V51.36H43.45V55.658H43.534C43.5993 55.546 43.7067 55.392 43.856 55.196C44.0147 55 44.2387 54.8273 44.528 54.678C44.8173 54.5193 45.1813 54.44 45.62 54.44C46.1613 54.44 46.6233 54.566 47.006 54.818C47.3887 55.0607 47.678 55.392 47.874 55.812C48.0793 56.232 48.182 56.7033 48.182 57.226V62H46.852V57.31C46.852 56.8153 46.712 56.4047 46.432 56.078C46.1613 55.7513 45.7647 55.588 45.242 55.588C44.822 55.588 44.4813 55.6953 44.22 55.91C43.9587 56.1153 43.7627 56.3907 43.632 56.736C43.5107 57.072 43.45 57.4313 43.45 57.814V62H42.12ZM54.0761 62.14C53.4694 62.14 52.9421 62.0327 52.4941 61.818C52.0554 61.594 51.6914 61.2953 51.4021 60.922C51.1221 60.5487 50.9121 60.138 50.7721 59.69C50.6321 59.2327 50.5621 58.766 50.5621 58.29C50.5621 57.8233 50.6274 57.3613 50.7581 56.904C50.8981 56.4467 51.1081 56.0313 51.3881 55.658C51.6774 55.2847 52.0368 54.9907 52.4661 54.776C52.9048 54.552 53.4228 54.44 54.0201 54.44C54.6548 54.44 55.2148 54.5847 55.7001 54.874C56.1854 55.1633 56.5681 55.5927 56.8481 56.162C57.1281 56.7313 57.2681 57.4453 57.2681 58.304V58.696H51.9061C51.9341 59.116 52.0321 59.5033 52.2001 59.858C52.3774 60.2033 52.6248 60.4833 52.9421 60.698C53.2594 60.9033 53.6374 61.006 54.0761 61.006C54.4588 61.006 54.7668 60.9453 55.0001 60.824C55.2428 60.6933 55.4341 60.544 55.5741 60.376C55.7141 60.208 55.8074 60.0633 55.8541 59.942C55.9101 59.8113 55.9381 59.746 55.9381 59.746H57.1841C57.1841 59.746 57.1608 59.83 57.1141 59.998C57.0674 60.1567 56.9834 60.3527 56.8621 60.586C56.7408 60.8193 56.5634 61.0573 56.3301 61.3C56.0968 61.5333 55.7981 61.734 55.4341 61.902C55.0701 62.0607 54.6174 62.14 54.0761 62.14ZM51.9201 57.66H55.9661C55.9474 57.1747 55.8448 56.7827 55.6581 56.484C55.4714 56.176 55.2334 55.9473 54.9441 55.798C54.6548 55.6487 54.3468 55.574 54.0201 55.574C53.4321 55.574 52.9514 55.7653 52.5781 56.148C52.2048 56.5213 51.9854 57.0253 51.9201 57.66ZM62.6563 62.14C61.8909 62.14 61.3123 61.944 60.9203 61.552C60.5376 61.16 60.3463 60.6093 60.3463 59.9V55.672H59.0163V54.58H60.3463V52.718H61.6763V54.58H63.4823V55.672H61.6763V59.9C61.6763 60.2733 61.7789 60.5487 61.9843 60.726C62.1896 60.894 62.4883 60.978 62.8803 60.978C63.0856 60.978 63.2816 60.964 63.4683 60.936C63.6549 60.908 63.7483 60.894 63.7483 60.894V62.028C63.7483 62.028 63.6409 62.0467 63.4263 62.084C63.2116 62.1213 62.9549 62.14 62.6563 62.14ZM66.1945 62V51.36H67.5245V57.548L70.4785 54.58H72.2145L68.7985 57.954L72.2845 62H70.5905L67.5245 58.43V62H66.1945ZM77.1253 62.14C76.5186 62.14 75.9912 62.0327 75.5432 61.818C75.1046 61.594 74.7406 61.2953 74.4512 60.922C74.1712 60.5487 73.9612 60.138 73.8212 59.69C73.6812 59.2327 73.6112 58.766 73.6112 58.29C73.6112 57.8233 73.6766 57.3613 73.8072 56.904C73.9472 56.4467 74.1572 56.0313 74.4372 55.658C74.7266 55.2847 75.0859 54.9907 75.5152 54.776C75.9539 54.552 76.4719 54.44 77.0692 54.44C77.7039 54.44 78.2639 54.5847 78.7492 54.874C79.2346 55.1633 79.6173 55.5927 79.8972 56.162C80.1773 56.7313 80.3173 57.4453 80.3173 58.304V58.696H74.9552C74.9832 59.116 75.0812 59.5033 75.2492 59.858C75.4266 60.2033 75.6739 60.4833 75.9912 60.698C76.3086 60.9033 76.6866 61.006 77.1253 61.006C77.5079 61.006 77.8159 60.9453 78.0492 60.824C78.2919 60.6933 78.4833 60.544 78.6232 60.376C78.7633 60.208 78.8566 60.0633 78.9033 59.942C78.9593 59.8113 78.9873 59.746 78.9873 59.746H80.2333C80.2333 59.746 80.2099 59.83 80.1632 59.998C80.1166 60.1567 80.0326 60.3527 79.9113 60.586C79.7899 60.8193 79.6126 61.0573 79.3793 61.3C79.1459 61.5333 78.8473 61.734 78.4833 61.902C78.1193 62.0607 77.6666 62.14 77.1253 62.14ZM74.9692 57.66H79.0152C78.9966 57.1747 78.8939 56.7827 78.7073 56.484C78.5206 56.176 78.2826 55.9473 77.9933 55.798C77.7039 55.6487 77.3959 55.574 77.0692 55.574C76.4812 55.574 76.0006 55.7653 75.6272 56.148C75.2539 56.5213 75.0346 57.0253 74.9692 57.66ZM82.6921 62V54.58H84.0221V55.658H84.1061C84.1714 55.546 84.2788 55.392 84.4281 55.196C84.5868 55 84.8108 54.8273 85.1001 54.678C85.3894 54.5193 85.7534 54.44 86.1921 54.44C86.7334 54.44 87.1954 54.566 87.5781 54.818C87.9608 55.0607 88.2501 55.392 88.4461 55.812C88.6514 56.232 88.7541 56.7033 88.7541 57.226V62H87.4241V57.31C87.4241 56.8153 87.2841 56.4047 87.0041 56.078C86.7334 55.7513 86.3368 55.588 85.8141 55.588C85.3941 55.588 85.0534 55.6953 84.7921 55.91C84.5308 56.1153 84.3348 56.3907 84.2041 56.736C84.0828 57.072 84.0221 57.4313 84.0221 57.814V62H82.6921ZM91.3895 63.722L92.3975 62.098C92.1735 62.0793 91.9822 61.986 91.8235 61.818C91.6742 61.65 91.5995 61.4447 91.5995 61.202C91.5995 60.9313 91.6928 60.7167 91.8795 60.558C92.0662 60.3993 92.2762 60.32 92.5095 60.32C92.7708 60.32 92.9902 60.3993 93.1675 60.558C93.3542 60.7167 93.4475 60.9407 93.4475 61.23C93.4475 61.4913 93.3448 61.79 93.1395 62.126C92.9435 62.462 92.6262 62.9473 92.1875 63.582L92.0895 63.722H91.3895ZM100.142 64.73C99.9277 64.73 99.7457 64.7207 99.5963 64.702C99.447 64.6833 99.3723 64.674 99.3723 64.674V63.54C99.3723 63.54 99.447 63.5447 99.5963 63.554C99.755 63.5727 99.923 63.582 100.1 63.582C100.651 63.582 101.099 63.4653 101.444 63.232C101.799 63.008 102.098 62.6347 102.34 62.112L99.4703 54.58H100.856L102.998 60.376L105.154 54.58H106.554L103.684 62.014C103.32 62.9473 102.849 63.6333 102.27 64.072C101.701 64.5107 100.992 64.73 100.142 64.73ZM108.584 62V54.58H109.914V55.504H109.97C110.129 55.224 110.362 54.9767 110.67 54.762C110.978 54.5473 111.412 54.44 111.972 54.44C112.131 54.44 112.276 54.4493 112.406 54.468C112.537 54.4773 112.602 54.482 112.602 54.482V55.756C112.602 55.756 112.528 55.7513 112.378 55.742C112.238 55.7233 112.089 55.714 111.93 55.714C111.286 55.714 110.787 55.9007 110.432 56.274C110.087 56.638 109.914 57.2353 109.914 58.066V62H108.584ZM115.768 53.166C115.516 53.166 115.306 53.082 115.138 52.914C114.98 52.746 114.9 52.5453 114.9 52.312C114.9 52.0693 114.98 51.864 115.138 51.696C115.306 51.528 115.516 51.444 115.768 51.444C116.011 51.444 116.216 51.528 116.384 51.696C116.552 51.864 116.636 52.0693 116.636 52.312C116.636 52.5453 116.552 52.746 116.384 52.914C116.216 53.082 116.011 53.166 115.768 53.166ZM115.11 62V54.58H116.44V62H115.11ZM122.302 62.14C121.536 62.14 120.958 61.944 120.566 61.552C120.183 61.16 119.992 60.6093 119.992 59.9V55.672H118.662V54.58H119.992V52.718H121.322V54.58H123.128V55.672H121.322V59.9C121.322 60.2733 121.424 60.5487 121.63 60.726C121.835 60.894 122.134 60.978 122.526 60.978C122.731 60.978 122.927 60.964 123.114 60.936C123.3 60.908 123.394 60.894 123.394 60.894V62.028C123.394 62.028 123.286 62.0467 123.072 62.084C122.857 62.1213 122.6 62.14 122.302 62.14ZM128.801 62.14C128.194 62.14 127.667 62.0327 127.219 61.818C126.78 61.594 126.416 61.2953 126.127 60.922C125.847 60.5487 125.637 60.138 125.497 59.69C125.357 59.2327 125.287 58.766 125.287 58.29C125.287 57.8233 125.352 57.3613 125.483 56.904C125.623 56.4467 125.833 56.0313 126.113 55.658C126.402 55.2847 126.761 54.9907 127.191 54.776C127.629 54.552 128.147 54.44 128.745 54.44C129.379 54.44 129.939 54.5847 130.425 54.874C130.91 55.1633 131.293 55.5927 131.573 56.162C131.853 56.7313 131.993 57.4453 131.993 58.304V58.696H126.631C126.659 59.116 126.757 59.5033 126.925 59.858C127.102 60.2033 127.349 60.4833 127.667 60.698C127.984 60.9033 128.362 61.006 128.801 61.006C129.183 61.006 129.491 60.9453 129.725 60.824C129.967 60.6933 130.159 60.544 130.299 60.376C130.439 60.208 130.532 60.0633 130.579 59.942C130.635 59.8113 130.663 59.746 130.663 59.746H131.909C131.909 59.746 131.885 59.83 131.839 59.998C131.792 60.1567 131.708 60.3527 131.587 60.586C131.465 60.8193 131.288 61.0573 131.055 61.3C130.821 61.5333 130.523 61.734 130.159 61.902C129.795 62.0607 129.342 62.14 128.801 62.14ZM126.645 57.66H130.691C130.672 57.1747 130.569 56.7827 130.383 56.484C130.196 56.176 129.958 55.9473 129.669 55.798C129.379 55.6487 129.071 55.574 128.745 55.574C128.157 55.574 127.676 55.7653 127.303 56.148C126.929 56.5213 126.71 57.0253 126.645 57.66ZM137.381 62.14C136.615 62.14 136.037 61.944 135.645 61.552C135.262 61.16 135.071 60.6093 135.071 59.9V55.672H133.741V54.58H135.071V52.718H136.401V54.58H138.207V55.672H136.401V59.9C136.401 60.2733 136.503 60.5487 136.709 60.726C136.914 60.894 137.213 60.978 137.605 60.978C137.81 60.978 138.006 60.964 138.193 60.936C138.379 60.908 138.473 60.894 138.473 60.894V62.028C138.473 62.028 138.365 62.0467 138.151 62.084C137.936 62.1213 137.679 62.14 137.381 62.14ZM145.434 53.446C145.182 53.446 144.972 53.362 144.804 53.194C144.645 53.026 144.566 52.8253 144.566 52.592C144.566 52.3493 144.645 52.144 144.804 51.976C144.972 51.808 145.182 51.724 145.434 51.724C145.676 51.724 145.882 51.808 146.05 51.976C146.218 52.144 146.302 52.3493 146.302 52.592C146.302 52.8253 146.218 53.026 146.05 53.194C145.882 53.362 145.676 53.446 145.434 53.446ZM142.774 53.446C142.522 53.446 142.312 53.362 142.144 53.194C141.985 53.026 141.906 52.8253 141.906 52.592C141.906 52.3493 141.985 52.144 142.144 51.976C142.312 51.808 142.522 51.724 142.774 51.724C143.016 51.724 143.222 51.808 143.39 51.976C143.558 52.144 143.642 52.3493 143.642 52.592C143.642 52.8253 143.558 53.026 143.39 53.194C143.222 53.362 143.016 53.446 142.774 53.446ZM143.796 54.44C144.262 54.44 144.654 54.5147 144.972 54.664C145.289 54.8133 145.546 54.9907 145.742 55.196C145.938 55.392 146.087 55.5787 146.19 55.756H146.274V54.58H147.604V62H146.274V60.824H146.19C146.087 61.0013 145.938 61.1927 145.742 61.398C145.546 61.6033 145.289 61.7807 144.972 61.93C144.654 62.07 144.262 62.14 143.796 62.14C143.236 62.14 142.746 62.0327 142.326 61.818C141.906 61.594 141.556 61.3 141.276 60.936C140.996 60.5627 140.786 60.1473 140.646 59.69C140.506 59.2327 140.436 58.766 140.436 58.29C140.436 57.814 140.506 57.3473 140.646 56.89C140.786 56.4327 140.996 56.022 141.276 55.658C141.556 55.2847 141.906 54.9907 142.326 54.776C142.746 54.552 143.236 54.44 143.796 54.44ZM144.02 55.574C143.525 55.574 143.11 55.7093 142.774 55.98C142.438 56.2413 142.186 56.5773 142.018 56.988C141.859 57.3987 141.78 57.8327 141.78 58.29C141.78 58.738 141.859 59.172 142.018 59.592C142.186 60.0027 142.438 60.3433 142.774 60.614C143.11 60.8753 143.525 61.006 144.02 61.006C144.514 61.006 144.925 60.8753 145.252 60.614C145.588 60.3433 145.835 60.0027 145.994 59.592C146.162 59.172 146.246 58.738 146.246 58.29C146.246 57.8327 146.162 57.3987 145.994 56.988C145.835 56.5773 145.588 56.2413 145.252 55.98C144.925 55.7093 144.514 55.574 144.02 55.574ZM155.14 53.446C154.888 53.446 154.678 53.362 154.51 53.194C154.351 53.026 154.272 52.8253 154.272 52.592C154.272 52.3493 154.351 52.144 154.51 51.976C154.678 51.808 154.888 51.724 155.14 51.724C155.383 51.724 155.588 51.808 155.756 51.976C155.924 52.144 156.008 52.3493 156.008 52.592C156.008 52.8253 155.924 53.026 155.756 53.194C155.588 53.362 155.383 53.446 155.14 53.446ZM152.48 53.446C152.228 53.446 152.018 53.362 151.85 53.194C151.691 53.026 151.612 52.8253 151.612 52.592C151.612 52.3493 151.691 52.144 151.85 51.976C152.018 51.808 152.228 51.724 152.48 51.724C152.723 51.724 152.928 51.808 153.096 51.976C153.264 52.144 153.348 52.3493 153.348 52.592C153.348 52.8253 153.264 53.026 153.096 53.194C152.928 53.362 152.723 53.446 152.48 53.446ZM153.502 54.44C153.969 54.44 154.361 54.5147 154.678 54.664C154.995 54.8133 155.252 54.9907 155.448 55.196C155.644 55.392 155.793 55.5787 155.896 55.756H155.98V54.58H157.31V62H155.98V60.824H155.896C155.793 61.0013 155.644 61.1927 155.448 61.398C155.252 61.6033 154.995 61.7807 154.678 61.93C154.361 62.07 153.969 62.14 153.502 62.14C152.942 62.14 152.452 62.0327 152.032 61.818C151.612 61.594 151.262 61.3 150.982 60.936C150.702 60.5627 150.492 60.1473 150.352 59.69C150.212 59.2327 150.142 58.766 150.142 58.29C150.142 57.814 150.212 57.3473 150.352 56.89C150.492 56.4327 150.702 56.022 150.982 55.658C151.262 55.2847 151.612 54.9907 152.032 54.776C152.452 54.552 152.942 54.44 153.502 54.44ZM153.726 55.574C153.231 55.574 152.816 55.7093 152.48 55.98C152.144 56.2413 151.892 56.5773 151.724 56.988C151.565 57.3987 151.486 57.8327 151.486 58.29C151.486 58.738 151.565 59.172 151.724 59.592C151.892 60.0027 152.144 60.3433 152.48 60.614C152.816 60.8753 153.231 61.006 153.726 61.006C154.221 61.006 154.631 60.8753 154.958 60.614C155.294 60.3433 155.541 60.0027 155.7 59.592C155.868 59.172 155.952 58.738 155.952 58.29C155.952 57.8327 155.868 57.3987 155.7 56.988C155.541 56.5773 155.294 56.2413 154.958 55.98C154.631 55.7093 154.221 55.574 153.726 55.574ZM159.919 62V54.58H161.249V55.658H161.333C161.398 55.546 161.505 55.392 161.655 55.196C161.813 55 162.037 54.8273 162.327 54.678C162.616 54.5193 162.98 54.44 163.419 54.44C163.96 54.44 164.422 54.566 164.805 54.818C165.187 55.0607 165.477 55.392 165.673 55.812C165.878 56.232 165.981 56.7033 165.981 57.226V62H164.651V57.31C164.651 56.8153 164.511 56.4047 164.231 56.078C163.96 55.7513 163.563 55.588 163.041 55.588C162.621 55.588 162.28 55.6953 162.019 55.91C161.757 56.1153 161.561 56.3907 161.431 56.736C161.309 57.072 161.249 57.4313 161.249 57.814V62H159.919ZM172.29 62V54.58H173.62V55.658H173.676C173.751 55.518 173.868 55.3547 174.026 55.168C174.185 54.972 174.4 54.804 174.67 54.664C174.95 54.5147 175.3 54.44 175.72 54.44C176.271 54.44 176.733 54.5753 177.106 54.846C177.489 55.1073 177.774 55.462 177.96 55.91H177.974C178.18 55.4993 178.469 55.154 178.842 54.874C179.225 54.5847 179.72 54.44 180.326 54.44C181.129 54.44 181.745 54.7153 182.174 55.266C182.613 55.8073 182.832 56.5073 182.832 57.366V62H181.502V57.436C181.502 56.8853 181.372 56.442 181.11 56.106C180.849 55.7607 180.471 55.588 179.976 55.588C179.547 55.588 179.202 55.7047 178.94 55.938C178.688 56.1713 178.506 56.4607 178.394 56.806C178.282 57.1513 178.226 57.4967 178.226 57.842V62H176.896V57.436C176.896 56.8853 176.766 56.442 176.504 56.106C176.252 55.7607 175.874 55.588 175.37 55.588C174.941 55.588 174.596 55.7047 174.334 55.938C174.082 56.1713 173.9 56.4653 173.788 56.82C173.676 57.1653 173.62 57.506 173.62 57.842V62H172.29ZM187.769 62.14C187.031 62.14 186.443 61.9113 186.005 61.454C185.566 60.9967 185.347 60.362 185.347 59.55V54.58H186.677V59.48C186.677 59.9653 186.807 60.3387 187.069 60.6C187.339 60.8613 187.694 60.992 188.133 60.992C188.581 60.992 188.94 60.8753 189.211 60.642C189.481 60.4087 189.677 60.11 189.799 59.746C189.92 59.382 189.981 59.0087 189.981 58.626V54.58H191.311V62H189.981V60.936H189.897C189.841 61.048 189.733 61.202 189.575 61.398C189.416 61.5847 189.192 61.7573 188.903 61.916C188.613 62.0653 188.235 62.14 187.769 62.14ZM196.258 62.14C195.521 62.14 194.933 61.9113 194.494 61.454C194.056 60.9967 193.836 60.362 193.836 59.55V54.58H195.166V59.48C195.166 59.9653 195.297 60.3387 195.558 60.6C195.829 60.8613 196.184 60.992 196.622 60.992C197.07 60.992 197.43 60.8753 197.7 60.642C197.971 60.4087 198.167 60.11 198.288 59.746C198.41 59.382 198.47 59.0087 198.47 58.626V54.58H199.8V62H198.47V60.936H198.386C198.33 61.048 198.223 61.202 198.064 61.398C197.906 61.5847 197.682 61.7573 197.392 61.916C197.103 62.0653 196.725 62.14 196.258 62.14ZM205.476 62.14C204.711 62.14 204.132 61.944 203.74 61.552C203.357 61.16 203.166 60.6093 203.166 59.9V55.672H201.836V54.58H203.166V52.718H204.496V54.58H206.302V55.672H204.496V59.9C204.496 60.2733 204.599 60.5487 204.804 60.726C205.009 60.894 205.308 60.978 205.7 60.978C205.905 60.978 206.101 60.964 206.288 60.936C206.475 60.908 206.568 60.894 206.568 60.894V62.028C206.568 62.028 206.461 62.0467 206.246 62.084C206.031 62.1213 205.775 62.14 205.476 62.14ZM211.888 62.14C211.122 62.14 210.544 61.944 210.152 61.552C209.769 61.16 209.578 60.6093 209.578 59.9V55.672H208.248V54.58H209.578V52.718H210.908V54.58H212.714V55.672H210.908V59.9C210.908 60.2733 211.01 60.5487 211.216 60.726C211.421 60.894 211.72 60.978 212.112 60.978C212.317 60.978 212.513 60.964 212.7 60.936C212.886 60.908 212.98 60.894 212.98 60.894V62.028C212.98 62.028 212.872 62.0467 212.658 62.084C212.443 62.1213 212.186 62.14 211.888 62.14ZM218.232 54.44C218.699 54.44 219.091 54.5147 219.408 54.664C219.726 54.8133 219.982 54.9907 220.178 55.196C220.374 55.392 220.524 55.5787 220.626 55.756H220.71V54.58H222.04V62H220.71V60.824H220.626C220.524 61.0013 220.374 61.1927 220.178 61.398C219.982 61.6033 219.726 61.7807 219.408 61.93C219.091 62.07 218.699 62.14 218.232 62.14C217.672 62.14 217.182 62.0327 216.762 61.818C216.342 61.594 215.992 61.3 215.712 60.936C215.432 60.5627 215.222 60.1473 215.082 59.69C214.942 59.2327 214.872 58.766 214.872 58.29C214.872 57.814 214.942 57.3473 215.082 56.89C215.222 56.4327 215.432 56.022 215.712 55.658C215.992 55.2847 216.342 54.9907 216.762 54.776C217.182 54.552 217.672 54.44 218.232 54.44ZM218.456 55.574C217.962 55.574 217.546 55.7093 217.21 55.98C216.874 56.2413 216.622 56.5773 216.454 56.988C216.296 57.3987 216.216 57.8327 216.216 58.29C216.216 58.738 216.296 59.172 216.454 59.592C216.622 60.0027 216.874 60.3433 217.21 60.614C217.546 60.8753 217.962 61.006 218.456 61.006C218.951 61.006 219.362 60.8753 219.688 60.614C220.024 60.3433 220.272 60.0027 220.43 59.592C220.598 59.172 220.682 58.738 220.682 58.29C220.682 57.8327 220.598 57.3987 220.43 56.988C220.272 56.5773 220.024 56.2413 219.688 55.98C219.362 55.7093 218.951 55.574 218.456 55.574ZM227.775 54.44C228.241 54.44 228.633 54.5147 228.951 54.664C229.268 54.8133 229.525 54.9907 229.721 55.196C229.917 55.392 230.066 55.5787 230.169 55.756H230.253V54.58H231.583V62H230.253V60.824H230.169C230.066 61.0013 229.917 61.1927 229.721 61.398C229.525 61.6033 229.268 61.7807 228.951 61.93C228.633 62.07 228.241 62.14 227.775 62.14C227.215 62.14 226.725 62.0327 226.305 61.818C225.885 61.594 225.535 61.3 225.255 60.936C224.975 60.5627 224.765 60.1473 224.625 59.69C224.485 59.2327 224.415 58.766 224.415 58.29C224.415 57.814 224.485 57.3473 224.625 56.89C224.765 56.4327 224.975 56.022 225.255 55.658C225.535 55.2847 225.885 54.9907 226.305 54.776C226.725 54.552 227.215 54.44 227.775 54.44ZM227.999 55.574C227.504 55.574 227.089 55.7093 226.753 55.98C226.417 56.2413 226.165 56.5773 225.997 56.988C225.838 57.3987 225.759 57.8327 225.759 58.29C225.759 58.738 225.838 59.172 225.997 59.592C226.165 60.0027 226.417 60.3433 226.753 60.614C227.089 60.8753 227.504 61.006 227.999 61.006C228.493 61.006 228.904 60.8753 229.231 60.614C229.567 60.3433 229.814 60.0027 229.973 59.592C230.141 59.172 230.225 58.738 230.225 58.29C230.225 57.8327 230.141 57.3987 229.973 56.988C229.814 56.5773 229.567 56.2413 229.231 55.98C228.904 55.7093 228.493 55.574 227.999 55.574ZM237.884 62V54.58H239.214V55.658H239.27C239.344 55.518 239.461 55.3547 239.62 55.168C239.778 54.972 239.993 54.804 240.264 54.664C240.544 54.5147 240.894 54.44 241.314 54.44C241.864 54.44 242.326 54.5753 242.7 54.846C243.082 55.1073 243.367 55.462 243.554 55.91H243.568C243.773 55.4993 244.062 55.154 244.436 54.874C244.818 54.5847 245.313 54.44 245.92 54.44C246.722 54.44 247.338 54.7153 247.768 55.266C248.206 55.8073 248.426 56.5073 248.426 57.366V62H247.096V57.436C247.096 56.8853 246.965 56.442 246.704 56.106C246.442 55.7607 246.064 55.588 245.57 55.588C245.14 55.588 244.795 55.7047 244.534 55.938C244.282 56.1713 244.1 56.4607 243.988 56.806C243.876 57.1513 243.82 57.4967 243.82 57.842V62H242.49V57.436C242.49 56.8853 242.359 56.442 242.098 56.106C241.846 55.7607 241.468 55.588 240.964 55.588C240.534 55.588 240.189 55.7047 239.928 55.938C239.676 56.1713 239.494 56.4653 239.382 56.82C239.27 57.1653 239.214 57.506 239.214 57.842V62H237.884ZM254.16 54.44C254.627 54.44 255.019 54.5147 255.336 54.664C255.653 54.8133 255.91 54.9907 256.106 55.196C256.302 55.392 256.451 55.5787 256.554 55.756H256.638V54.58H257.968V62H256.638V60.824H256.554C256.451 61.0013 256.302 61.1927 256.106 61.398C255.91 61.6033 255.653 61.7807 255.336 61.93C255.019 62.07 254.627 62.14 254.16 62.14C253.6 62.14 253.11 62.0327 252.69 61.818C252.27 61.594 251.92 61.3 251.64 60.936C251.36 60.5627 251.15 60.1473 251.01 59.69C250.87 59.2327 250.8 58.766 250.8 58.29C250.8 57.814 250.87 57.3473 251.01 56.89C251.15 56.4327 251.36 56.022 251.64 55.658C251.92 55.2847 252.27 54.9907 252.69 54.776C253.11 54.552 253.6 54.44 254.16 54.44ZM254.384 55.574C253.889 55.574 253.474 55.7093 253.138 55.98C252.802 56.2413 252.55 56.5773 252.382 56.988C252.223 57.3987 252.144 57.8327 252.144 58.29C252.144 58.738 252.223 59.172 252.382 59.592C252.55 60.0027 252.802 60.3433 253.138 60.614C253.474 60.8753 253.889 61.006 254.384 61.006C254.879 61.006 255.289 60.8753 255.616 60.614C255.952 60.3433 256.199 60.0027 256.358 59.592C256.526 59.172 256.61 58.738 256.61 58.29C256.61 57.8327 256.526 57.3987 256.358 56.988C256.199 56.5773 255.952 56.2413 255.616 55.98C255.289 55.7093 254.879 55.574 254.384 55.574ZM263.702 54.44C264.169 54.44 264.561 54.5147 264.878 54.664C265.196 54.8133 265.452 54.9907 265.648 55.196C265.844 55.392 265.994 55.5787 266.096 55.756H266.18V54.58H267.51V62H266.18V60.824H266.096C265.994 61.0013 265.844 61.1927 265.648 61.398C265.452 61.6033 265.196 61.7807 264.878 61.93C264.561 62.07 264.169 62.14 263.702 62.14C263.142 62.14 262.652 62.0327 262.232 61.818C261.812 61.594 261.462 61.3 261.182 60.936C260.902 60.5627 260.692 60.1473 260.552 59.69C260.412 59.2327 260.342 58.766 260.342 58.29C260.342 57.814 260.412 57.3473 260.552 56.89C260.692 56.4327 260.902 56.022 261.182 55.658C261.462 55.2847 261.812 54.9907 262.232 54.776C262.652 54.552 263.142 54.44 263.702 54.44ZM263.926 55.574C263.432 55.574 263.016 55.7093 262.68 55.98C262.344 56.2413 262.092 56.5773 261.924 56.988C261.766 57.3987 261.686 57.8327 261.686 58.29C261.686 58.738 261.766 59.172 261.924 59.592C262.092 60.0027 262.344 60.3433 262.68 60.614C263.016 60.8753 263.432 61.006 263.926 61.006C264.421 61.006 264.832 60.8753 265.158 60.614C265.494 60.3433 265.742 60.0027 265.9 59.592C266.068 59.172 266.152 58.738 266.152 58.29C266.152 57.8327 266.068 57.3987 265.9 56.988C265.742 56.5773 265.494 56.2413 265.158 55.98C264.832 55.7093 264.421 55.574 263.926 55.574ZM270.893 53.166C270.641 53.166 270.431 53.082 270.263 52.914C270.104 52.746 270.025 52.5453 270.025 52.312C270.025 52.0693 270.104 51.864 270.263 51.696C270.431 51.528 270.641 51.444 270.893 51.444C271.135 51.444 271.341 51.528 271.509 51.696C271.677 51.864 271.761 52.0693 271.761 52.312C271.761 52.5453 271.677 52.746 271.509 52.914C271.341 53.082 271.135 53.166 270.893 53.166ZM270.235 62V54.58H271.565V62H270.235ZM274.416 62L274.43 51.36H275.746V62H274.416ZM278.404 62V54.58H279.734V55.658H279.79C279.865 55.518 279.982 55.3547 280.14 55.168C280.299 54.972 280.514 54.804 280.784 54.664C281.064 54.5147 281.414 54.44 281.834 54.44C282.385 54.44 282.847 54.5753 283.22 54.846C283.603 55.1073 283.888 55.462 284.074 55.91H284.088C284.294 55.4993 284.583 55.154 284.956 54.874C285.339 54.5847 285.834 54.44 286.44 54.44C287.243 54.44 287.859 54.7153 288.288 55.266C288.727 55.8073 288.946 56.5073 288.946 57.366V62H287.616V57.436C287.616 56.8853 287.486 56.442 287.224 56.106C286.963 55.7607 286.585 55.588 286.09 55.588C285.661 55.588 285.316 55.7047 285.054 55.938C284.802 56.1713 284.62 56.4607 284.508 56.806C284.396 57.1513 284.34 57.4967 284.34 57.842V62H283.01V57.436C283.01 56.8853 282.88 56.442 282.618 56.106C282.366 55.7607 281.988 55.588 281.484 55.588C281.055 55.588 280.71 55.7047 280.448 55.938C280.196 56.1713 280.014 56.4653 279.902 56.82C279.79 57.1653 279.734 57.506 279.734 57.842V62H278.404ZM294.681 54.44C295.147 54.44 295.539 54.5147 295.857 54.664C296.174 54.8133 296.431 54.9907 296.627 55.196C296.823 55.392 296.972 55.5787 297.075 55.756H297.159V54.58H298.489V62H297.159V60.824H297.075C296.972 61.0013 296.823 61.1927 296.627 61.398C296.431 61.6033 296.174 61.7807 295.857 61.93C295.539 62.07 295.147 62.14 294.681 62.14C294.121 62.14 293.631 62.0327 293.211 61.818C292.791 61.594 292.441 61.3 292.161 60.936C291.881 60.5627 291.671 60.1473 291.531 59.69C291.391 59.2327 291.321 58.766 291.321 58.29C291.321 57.814 291.391 57.3473 291.531 56.89C291.671 56.4327 291.881 56.022 292.161 55.658C292.441 55.2847 292.791 54.9907 293.211 54.776C293.631 54.552 294.121 54.44 294.681 54.44ZM294.905 55.574C294.41 55.574 293.995 55.7093 293.659 55.98C293.323 56.2413 293.071 56.5773 292.903 56.988C292.744 57.3987 292.665 57.8327 292.665 58.29C292.665 58.738 292.744 59.172 292.903 59.592C293.071 60.0027 293.323 60.3433 293.659 60.614C293.995 60.8753 294.41 61.006 294.905 61.006C295.399 61.006 295.81 60.8753 296.137 60.614C296.473 60.3433 296.72 60.0027 296.879 59.592C297.047 59.172 297.131 58.738 297.131 58.29C297.131 57.8327 297.047 57.3987 296.879 56.988C296.72 56.5773 296.473 56.2413 296.137 55.98C295.81 55.7093 295.399 55.574 294.905 55.574ZM304.223 54.44C304.69 54.44 305.082 54.5147 305.399 54.664C305.716 54.8133 305.973 54.9907 306.169 55.196C306.365 55.392 306.514 55.5787 306.617 55.756H306.701V54.58H308.031V62H306.701V60.824H306.617C306.514 61.0013 306.365 61.1927 306.169 61.398C305.973 61.6033 305.716 61.7807 305.399 61.93C305.082 62.07 304.69 62.14 304.223 62.14C303.663 62.14 303.173 62.0327 302.753 61.818C302.333 61.594 301.983 61.3 301.703 60.936C301.423 60.5627 301.213 60.1473 301.073 59.69C300.933 59.2327 300.863 58.766 300.863 58.29C300.863 57.814 300.933 57.3473 301.073 56.89C301.213 56.4327 301.423 56.022 301.703 55.658C301.983 55.2847 302.333 54.9907 302.753 54.776C303.173 54.552 303.663 54.44 304.223 54.44ZM304.447 55.574C303.952 55.574 303.537 55.7093 303.201 55.98C302.865 56.2413 302.613 56.5773 302.445 56.988C302.286 57.3987 302.207 57.8327 302.207 58.29C302.207 58.738 302.286 59.172 302.445 59.592C302.613 60.0027 302.865 60.3433 303.201 60.614C303.537 60.8753 303.952 61.006 304.447 61.006C304.942 61.006 305.352 60.8753 305.679 60.614C306.015 60.3433 306.262 60.0027 306.421 59.592C306.589 59.172 306.673 58.738 306.673 58.29C306.673 57.8327 306.589 57.3987 306.421 56.988C306.262 56.5773 306.015 56.2413 305.679 55.98C305.352 55.7093 304.942 55.574 304.447 55.574ZM45.13 80.14C44.3647 80.14 43.786 79.944 43.394 79.552C43.0113 79.16 42.82 78.6093 42.82 77.9V73.672H41.49V72.58H42.82V70.718H44.15V72.58H45.956V73.672H44.15V77.9C44.15 78.2733 44.2527 78.5487 44.458 78.726C44.6633 78.894 44.962 78.978 45.354 78.978C45.5593 78.978 45.7553 78.964 45.942 78.936C46.1287 78.908 46.222 78.894 46.222 78.894V80.028C46.222 80.028 46.1147 80.0467 45.9 80.084C45.6853 80.1213 45.4287 80.14 45.13 80.14ZM53.1828 71.446C52.9308 71.446 52.7208 71.362 52.5528 71.194C52.3942 71.026 52.3148 70.8253 52.3148 70.592C52.3148 70.3493 52.3942 70.144 52.5528 69.976C52.7208 69.808 52.9308 69.724 53.1828 69.724C53.4255 69.724 53.6308 69.808 53.7988 69.976C53.9668 70.144 54.0508 70.3493 54.0508 70.592C54.0508 70.8253 53.9668 71.026 53.7988 71.194C53.6308 71.362 53.4255 71.446 53.1828 71.446ZM50.5228 71.446C50.2708 71.446 50.0608 71.362 49.8928 71.194C49.7342 71.026 49.6548 70.8253 49.6548 70.592C49.6548 70.3493 49.7342 70.144 49.8928 69.976C50.0608 69.808 50.2708 69.724 50.5228 69.724C50.7655 69.724 50.9708 69.808 51.1388 69.976C51.3068 70.144 51.3908 70.3493 51.3908 70.592C51.3908 70.8253 51.3068 71.026 51.1388 71.194C50.9708 71.362 50.7655 71.446 50.5228 71.446ZM51.5448 72.44C52.0115 72.44 52.4035 72.5147 52.7208 72.664C53.0382 72.8133 53.2948 72.9907 53.4908 73.196C53.6868 73.392 53.8362 73.5787 53.9388 73.756H54.0228V72.58H55.3528V80H54.0228V78.824H53.9388C53.8362 79.0013 53.6868 79.1927 53.4908 79.398C53.2948 79.6033 53.0382 79.7807 52.7208 79.93C52.4035 80.07 52.0115 80.14 51.5448 80.14C50.9848 80.14 50.4948 80.0327 50.0748 79.818C49.6548 79.594 49.3048 79.3 49.0248 78.936C48.7448 78.5627 48.5348 78.1473 48.3948 77.69C48.2548 77.2327 48.1848 76.766 48.1848 76.29C48.1848 75.814 48.2548 75.3473 48.3948 74.89C48.5348 74.4327 48.7448 74.022 49.0248 73.658C49.3048 73.2847 49.6548 72.9907 50.0748 72.776C50.4948 72.552 50.9848 72.44 51.5448 72.44ZM51.7688 73.574C51.2742 73.574 50.8588 73.7093 50.5228 73.98C50.1868 74.2413 49.9348 74.5773 49.7668 74.988C49.6082 75.3987 49.5288 75.8327 49.5288 76.29C49.5288 76.738 49.6082 77.172 49.7668 77.592C49.9348 78.0027 50.1868 78.3433 50.5228 78.614C50.8588 78.8753 51.2742 79.006 51.7688 79.006C52.2635 79.006 52.6742 78.8753 53.0008 78.614C53.3368 78.3433 53.5842 78.0027 53.7428 77.592C53.9108 77.172 53.9948 76.738 53.9948 76.29C53.9948 75.8327 53.9108 75.3987 53.7428 74.988C53.5842 74.5773 53.3368 74.2413 53.0008 73.98C52.6742 73.7093 52.2635 73.574 51.7688 73.574ZM58.1013 80V69.36H59.4313V73.658H59.5153C59.5807 73.546 59.688 73.392 59.8373 73.196C59.996 73 60.22 72.8273 60.5093 72.678C60.7987 72.5193 61.1627 72.44 61.6013 72.44C62.1427 72.44 62.6047 72.566 62.9873 72.818C63.37 73.0607 63.6593 73.392 63.8553 73.812C64.0607 74.232 64.1633 74.7033 64.1633 75.226V80H62.8333V75.31C62.8333 74.8153 62.6933 74.4047 62.4133 74.078C62.1427 73.7513 61.746 73.588 61.2233 73.588C60.8033 73.588 60.4627 73.6953 60.2013 73.91C59.94 74.1153 59.744 74.3907 59.6133 74.736C59.492 75.072 59.4313 75.4313 59.4313 75.814V80H58.1013ZM71.6114 71.446C71.3594 71.446 71.1494 71.362 70.9814 71.194C70.8228 71.026 70.7434 70.8253 70.7434 70.592C70.7434 70.3493 70.8228 70.144 70.9814 69.976C71.1494 69.808 71.3594 69.724 71.6114 69.724C71.8541 69.724 72.0594 69.808 72.2274 69.976C72.3954 70.144 72.4794 70.3493 72.4794 70.592C72.4794 70.8253 72.3954 71.026 72.2274 71.194C72.0594 71.362 71.8541 71.446 71.6114 71.446ZM68.9514 71.446C68.6994 71.446 68.4894 71.362 68.3214 71.194C68.1628 71.026 68.0834 70.8253 68.0834 70.592C68.0834 70.3493 68.1628 70.144 68.3214 69.976C68.4894 69.808 68.6994 69.724 68.9514 69.724C69.1941 69.724 69.3994 69.808 69.5674 69.976C69.7354 70.144 69.8194 70.3493 69.8194 70.592C69.8194 70.8253 69.7354 71.026 69.5674 71.194C69.3994 71.362 69.1941 71.446 68.9514 71.446ZM69.9734 72.44C70.4401 72.44 70.8321 72.5147 71.1494 72.664C71.4668 72.8133 71.7234 72.9907 71.9194 73.196C72.1154 73.392 72.2648 73.5787 72.3674 73.756H72.4514V72.58H73.7814V80H72.4514V78.824H72.3674C72.2648 79.0013 72.1154 79.1927 71.9194 79.398C71.7234 79.6033 71.4668 79.7807 71.1494 79.93C70.8321 80.07 70.4401 80.14 69.9734 80.14C69.4134 80.14 68.9234 80.0327 68.5034 79.818C68.0834 79.594 67.7334 79.3 67.4534 78.936C67.1734 78.5627 66.9634 78.1473 66.8234 77.69C66.6834 77.2327 66.6134 76.766 66.6134 76.29C66.6134 75.814 66.6834 75.3473 66.8234 74.89C66.9634 74.4327 67.1734 74.022 67.4534 73.658C67.7334 73.2847 68.0834 72.9907 68.5034 72.776C68.9234 72.552 69.4134 72.44 69.9734 72.44ZM70.1974 73.574C69.7028 73.574 69.2874 73.7093 68.9514 73.98C68.6154 74.2413 68.3634 74.5773 68.1954 74.988C68.0368 75.3987 67.9574 75.8327 67.9574 76.29C67.9574 76.738 68.0368 77.172 68.1954 77.592C68.3634 78.0027 68.6154 78.3433 68.9514 78.614C69.2874 78.8753 69.7028 79.006 70.1974 79.006C70.6921 79.006 71.1028 78.8753 71.4294 78.614C71.7654 78.3433 72.0128 78.0027 72.1714 77.592C72.3394 77.172 72.4234 76.738 72.4234 76.29C72.4234 75.8327 72.3394 75.3987 72.1714 74.988C72.0128 74.5773 71.7654 74.2413 71.4294 73.98C71.1028 73.7093 70.6921 73.574 70.1974 73.574ZM76.3899 80V72.58H77.7199V73.658H77.8039C77.8693 73.546 77.9766 73.392 78.1259 73.196C78.2846 73 78.5086 72.8273 78.7979 72.678C79.0873 72.5193 79.4513 72.44 79.8899 72.44C80.4313 72.44 80.8933 72.566 81.2759 72.818C81.6586 73.0607 81.9479 73.392 82.1439 73.812C82.3493 74.232 82.4519 74.7033 82.4519 75.226V80H81.1219V75.31C81.1219 74.8153 80.9819 74.4047 80.7019 74.078C80.4313 73.7513 80.0346 73.588 79.5119 73.588C79.0919 73.588 78.7513 73.6953 78.4899 73.91C78.2286 74.1153 78.0326 74.3907 77.9019 74.736C77.7806 75.072 77.7199 75.4313 77.7199 75.814V80H76.3899ZM91.4779 80.14C90.9085 80.14 90.4372 80.0607 90.0639 79.902C89.6999 79.7433 89.4105 79.5473 89.1959 79.314C88.9812 79.0713 88.8225 78.8333 88.7199 78.6C88.6172 78.3573 88.5519 78.1567 88.5239 77.998C88.4959 77.8393 88.4819 77.76 88.4819 77.76H89.8259C89.8259 77.76 89.8399 77.8253 89.8679 77.956C89.9052 78.0773 89.9752 78.222 90.0779 78.39C90.1899 78.5487 90.3579 78.6933 90.5819 78.824C90.8152 78.9453 91.1232 79.006 91.5059 79.006C91.9445 79.006 92.2852 78.9033 92.5279 78.698C92.7705 78.4833 92.8919 78.222 92.8919 77.914C92.8919 77.6433 92.7939 77.4287 92.5979 77.27C92.4112 77.1113 92.1405 76.99 91.7859 76.906L90.7779 76.668C90.4045 76.5747 90.0545 76.4487 89.7279 76.29C89.4012 76.1313 89.1352 75.9167 88.9299 75.646C88.7339 75.366 88.6359 75.0207 88.6359 74.61C88.6359 73.9753 88.8739 73.4573 89.3499 73.056C89.8259 72.6453 90.4465 72.44 91.2119 72.44C91.7252 72.44 92.1499 72.5147 92.4859 72.664C92.8219 72.804 93.0879 72.9813 93.2839 73.196C93.4892 73.4107 93.6385 73.6253 93.7319 73.84C93.8345 74.0547 93.8999 74.2367 93.9279 74.386C93.9559 74.526 93.9699 74.596 93.9699 74.596H92.6819C92.6819 74.596 92.6679 74.5447 92.6399 74.442C92.6119 74.33 92.5465 74.2087 92.4439 74.078C92.3505 73.938 92.2059 73.8167 92.0099 73.714C91.8139 73.602 91.5525 73.546 91.2259 73.546C90.7779 73.546 90.4512 73.6487 90.2459 73.854C90.0405 74.0593 89.9379 74.2833 89.9379 74.526C89.9379 74.7593 90.0312 74.9507 90.2179 75.1C90.4139 75.24 90.6659 75.3473 90.9739 75.422L91.9959 75.66C92.6305 75.8093 93.1532 76.0567 93.5639 76.402C93.9839 76.738 94.1939 77.2233 94.1939 77.858C94.1939 78.2687 94.0865 78.6513 93.8719 79.006C93.6572 79.3513 93.3492 79.6267 92.9479 79.832C92.5465 80.0373 92.0565 80.14 91.4779 80.14ZM98.8532 80.14C98.1159 80.14 97.5279 79.9113 97.0892 79.454C96.6506 78.9967 96.4312 78.362 96.4312 77.55V72.58H97.7612V77.48C97.7612 77.9653 97.8919 78.3387 98.1532 78.6C98.4239 78.8613 98.7786 78.992 99.2172 78.992C99.6652 78.992 100.025 78.8753 100.295 78.642C100.566 78.4087 100.762 78.11 100.883 77.746C101.005 77.382 101.065 77.0087 101.065 76.626V72.58H102.395V80H101.065V78.936H100.981C100.925 79.048 100.818 79.202 100.659 79.398C100.501 79.5847 100.277 79.7573 99.9872 79.916C99.6979 80.0653 99.3199 80.14 98.8532 80.14ZM107.343 80.14C106.606 80.14 106.018 79.9113 105.579 79.454C105.14 78.9967 104.921 78.362 104.921 77.55V72.58H106.251V77.48C106.251 77.9653 106.382 78.3387 106.643 78.6C106.914 78.8613 107.268 78.992 107.707 78.992C108.155 78.992 108.514 78.8753 108.785 78.642C109.056 78.4087 109.252 78.11 109.373 77.746C109.494 77.382 109.555 77.0087 109.555 76.626V72.58H110.885V80H109.555V78.936H109.471C109.415 79.048 109.308 79.202 109.149 79.398C108.99 79.5847 108.766 79.7573 108.477 79.916C108.188 80.0653 107.81 80.14 107.343 80.14ZM113.411 80V72.58H114.741V73.658H114.825C114.89 73.546 114.997 73.392 115.147 73.196C115.305 73 115.529 72.8273 115.819 72.678C116.108 72.5193 116.472 72.44 116.911 72.44C117.452 72.44 117.914 72.566 118.297 72.818C118.679 73.0607 118.969 73.392 119.165 73.812C119.37 74.232 119.473 74.7033 119.473 75.226V80H118.143V75.31C118.143 74.8153 118.003 74.4047 117.723 74.078C117.452 73.7513 117.055 73.588 116.533 73.588C116.113 73.588 115.772 73.6953 115.511 73.91C115.249 74.1153 115.053 74.3907 114.923 74.736C114.801 75.072 114.741 75.4313 114.741 75.814V80H113.411ZM124.873 80.14C124.107 80.14 123.529 79.944 123.137 79.552C122.754 79.16 122.563 78.6093 122.563 77.9V73.672H121.233V72.58H122.563V70.718H123.893V72.58H125.699V73.672H123.893V77.9C123.893 78.2733 123.995 78.5487 124.201 78.726C124.406 78.894 124.705 78.978 125.097 78.978C125.302 78.978 125.498 78.964 125.685 78.936C125.871 78.908 125.965 78.894 125.965 78.894V80.028C125.965 80.028 125.857 80.0467 125.643 80.084C125.428 80.1213 125.171 80.14 124.873 80.14ZM131.217 72.44C131.684 72.44 132.076 72.5147 132.393 72.664C132.711 72.8133 132.967 72.9907 133.163 73.196C133.359 73.392 133.509 73.5787 133.611 73.756H133.695V72.58H135.025V80H133.695V78.824H133.611C133.509 79.0013 133.359 79.1927 133.163 79.398C132.967 79.6033 132.711 79.7807 132.393 79.93C132.076 80.07 131.684 80.14 131.217 80.14C130.657 80.14 130.167 80.0327 129.747 79.818C129.327 79.594 128.977 79.3 128.697 78.936C128.417 78.5627 128.207 78.1473 128.067 77.69C127.927 77.2327 127.857 76.766 127.857 76.29C127.857 75.814 127.927 75.3473 128.067 74.89C128.207 74.4327 128.417 74.022 128.697 73.658C128.977 73.2847 129.327 72.9907 129.747 72.776C130.167 72.552 130.657 72.44 131.217 72.44ZM131.441 73.574C130.947 73.574 130.531 73.7093 130.195 73.98C129.859 74.2413 129.607 74.5773 129.439 74.988C129.281 75.3987 129.201 75.8327 129.201 76.29C129.201 76.738 129.281 77.172 129.439 77.592C129.607 78.0027 129.859 78.3433 130.195 78.614C130.531 78.8753 130.947 79.006 131.441 79.006C131.936 79.006 132.347 78.8753 132.673 78.614C133.009 78.3433 133.257 78.0027 133.415 77.592C133.583 77.172 133.667 76.738 133.667 76.29C133.667 75.8327 133.583 75.3987 133.415 74.988C133.257 74.5773 133.009 74.2413 132.673 73.98C132.347 73.7093 131.936 73.574 131.441 73.574ZM140.76 72.44C141.227 72.44 141.619 72.5147 141.936 72.664C142.253 72.8133 142.51 72.9907 142.706 73.196C142.902 73.392 143.051 73.5787 143.154 73.756H143.238V72.58H144.568V80H143.238V78.824H143.154C143.051 79.0013 142.902 79.1927 142.706 79.398C142.51 79.6033 142.253 79.7807 141.936 79.93C141.619 80.07 141.227 80.14 140.76 80.14C140.2 80.14 139.71 80.0327 139.29 79.818C138.87 79.594 138.52 79.3 138.24 78.936C137.96 78.5627 137.75 78.1473 137.61 77.69C137.47 77.2327 137.4 76.766 137.4 76.29C137.4 75.814 137.47 75.3473 137.61 74.89C137.75 74.4327 137.96 74.022 138.24 73.658C138.52 73.2847 138.87 72.9907 139.29 72.776C139.71 72.552 140.2 72.44 140.76 72.44ZM140.984 73.574C140.489 73.574 140.074 73.7093 139.738 73.98C139.402 74.2413 139.15 74.5773 138.982 74.988C138.823 75.3987 138.744 75.8327 138.744 76.29C138.744 76.738 138.823 77.172 138.982 77.592C139.15 78.0027 139.402 78.3433 139.738 78.614C140.074 78.8753 140.489 79.006 140.984 79.006C141.479 79.006 141.889 78.8753 142.216 78.614C142.552 78.3433 142.799 78.0027 142.958 77.592C143.126 77.172 143.21 76.738 143.21 76.29C143.21 75.8327 143.126 75.3987 142.958 74.988C142.799 74.5773 142.552 74.2413 142.216 73.98C141.889 73.7093 141.479 73.574 140.984 73.574ZM147.082 80V72.58H148.412V73.658H148.496C148.562 73.546 148.669 73.392 148.818 73.196C148.977 73 149.201 72.8273 149.49 72.678C149.78 72.5193 150.144 72.44 150.582 72.44C151.124 72.44 151.586 72.566 151.968 72.818C152.351 73.0607 152.64 73.392 152.836 73.812C153.042 74.232 153.144 74.7033 153.144 75.226V80H151.814V75.31C151.814 74.8153 151.674 74.4047 151.394 74.078C151.124 73.7513 150.727 73.588 150.204 73.588C149.784 73.588 149.444 73.6953 149.182 73.91C148.921 74.1153 148.725 74.3907 148.594 74.736C148.473 75.072 148.412 75.4313 148.412 75.814V80H147.082ZM165.138 78.348L159.594 75.716V74.904L165.138 72.272V73.49L161.19 75.31L165.138 77.13V78.348ZM171.364 80.14C170.757 80.14 170.178 80.0233 169.628 79.79C169.086 79.5567 168.643 79.202 168.298 78.726C167.962 78.2407 167.794 77.6293 167.794 76.892H169.096C169.096 77.368 169.203 77.76 169.418 78.068C169.642 78.376 169.926 78.6047 170.272 78.754C170.626 78.9033 170.99 78.978 171.364 78.978C171.765 78.978 172.134 78.9033 172.47 78.754C172.806 78.5953 173.076 78.3667 173.282 78.068C173.487 77.7693 173.59 77.41 173.59 76.99C173.59 76.4393 173.408 76.0053 173.044 75.688C172.68 75.3613 172.194 75.198 171.588 75.198H170.188V74.12H171.588C172.092 74.12 172.521 73.9707 172.876 73.672C173.24 73.3733 173.422 72.9673 173.422 72.454C173.422 72.0807 173.324 71.7633 173.128 71.502C172.941 71.2313 172.689 71.0213 172.372 70.872C172.064 70.7227 171.728 70.648 171.364 70.648C171.018 70.648 170.682 70.7273 170.356 70.886C170.038 71.0353 169.777 71.264 169.572 71.572C169.366 71.88 169.264 72.272 169.264 72.748H167.99C167.99 72.02 168.153 71.418 168.48 70.942C168.816 70.4567 169.24 70.0973 169.754 69.864C170.276 69.6213 170.822 69.5 171.392 69.5C171.97 69.5 172.512 69.6167 173.016 69.85C173.529 70.074 173.944 70.4007 174.262 70.83C174.579 71.25 174.738 71.754 174.738 72.342C174.738 72.902 174.598 73.378 174.318 73.77C174.038 74.1527 173.683 74.428 173.254 74.596V74.666C173.748 74.834 174.154 75.1187 174.472 75.52C174.789 75.9213 174.948 76.4253 174.948 77.032C174.948 77.676 174.78 78.2313 174.444 78.698C174.108 79.1647 173.669 79.524 173.128 79.776C172.586 80.0187 171.998 80.14 171.364 80.14Z" fill="white"/>
</g>
<defs>
<clipPath id="clip0_175_152">
<rect width="374" height="120" fill="white"/>
</clipPath>
</defs>
</svg>
